<?xml version="1.0" standalone="no"?>
<!DOCTYPE svg PUBLIC "-//W3C//DTD SVG 20010904//EN"
 "http://www.w3.org/TR/2001/REC-SVG-20010904/DTD/svg10.dtd">
<svg version="1.0" xmlns="http://www.w3.org/2000/svg"
 width="154.000000pt" height="154.000000pt" viewBox="0 0 154.000000 154.000000"
 preserveAspectRatio="xMidYMid meet">
<metadata>
Created by potrace 1.11, written by Peter Selinger 2001-2013
</metadata>
<g transform="translate(0.000000,154.000000) scale(0.100000,-0.100000)"
fill="#000000" stroke="none">
<path d="M685 1522 c-314 -37 -576 -267 -654 -575 -25 -98 -26 -261 -1 -359
55 -221 199 -403 396 -502 445 -222 975 29 1088 516 18 80 19 249 0 328 -31
134 -104 267 -198 363 -49 50 -129 117 -140 117 -3 0 -27 12 -53 28 -114 65
-297 101 -438 84z"/>
</g>
</svg>
