<svg width="595" height="616" viewBox="0 0 595 616" fill="none" xmlns="http://www.w3.org/2000/svg">
<g id="Vector" opacity="0.1" transform="translate(0.601562 0.822266)">
<mask id="path-1-inside-1" fill="white">
<path d="M420.161 449.131C428.576 446.316 433.116 437.213 430.301 428.798C427.486 420.383 418.383 415.843 409.968 418.658C401.553 421.472 397.013 430.576 399.828 438.991C402.643 447.406 411.746 451.945 420.161 449.131Z"/>
<path d="M520.962 41.3941L475.252 56.6838L459.962 10.9741C457.148 2.55945 448.044 -1.98057 439.629 0.834089L378.641 21.2342C358.543 7.39696 332.414 2.81446 307.544 11.1334C282.673 19.4523 264.56 38.8339 256.832 61.9788L10.9741 144.217C2.55945 147.032 -1.98057 156.136 0.834089 164.55L133.684 561.716C136.499 570.131 145.603 574.671 154.017 571.856L199.727 556.567L215.356 603.292C218.171 611.707 227.275 616.247 235.689 613.432L547.68 509.073C568.029 502.266 584.51 487.943 594.085 468.741C594.085 468.741 594.127 468.654 594.15 468.611L630.864 393.297C640.406 374.112 641.919 352.359 635.121 332.036L541.295 51.5341C538.48 43.1195 529.376 38.5795 520.962 41.3941ZM402.58 47.1096L434.586 36.4038L444.779 66.8769L412.773 77.5827C412.129 72.3225 410.954 67.0504 409.209 61.8334C407.464 56.6164 405.231 51.6983 402.58 47.1096ZM317.737 41.6065C342.941 33.1758 370.305 46.8222 378.736 72.0265C387.167 97.2308 373.52 124.595 348.316 133.026C323.112 141.457 295.747 127.81 287.317 102.606C278.886 77.4015 292.532 50.0372 317.737 41.6065ZM82.1665 205.11L189.534 526.094L159.061 536.287L36.3698 169.492L253.246 96.9481C253.889 102.208 255.099 107.582 256.844 112.799C258.589 118.016 260.822 122.934 263.473 127.523L92.3065 184.777C83.8919 187.592 79.3519 196.696 82.1665 205.11ZM602.073 379.029C602.05 379.072 602.008 379.159 602.008 379.159L565.299 454.463C561.158 462.738 554.869 469.486 547.125 474.145L516.576 382.817L606.89 352.608C607.83 361.619 606.213 370.725 602.073 379.029ZM597.803 321.764L491.147 357.44C482.732 360.255 478.192 369.359 481.007 377.773L517.022 485.445L240.733 577.862L117.736 210.154L287.411 153.398C290.446 155.488 293.619 157.364 296.904 159.018L287.155 194.91C284.829 203.473 289.886 212.3 298.449 214.625C307.016 216.953 315.84 211.89 318.164 203.332L327.906 167.466C337.986 168.124 348.351 166.897 358.509 163.499C383.379 155.18 401.493 135.798 409.221 112.654L515.918 76.9638L597.803 321.764Z"/>
<path d="M501.083 184.659L194.321 287.27C185.906 290.084 181.366 299.188 184.181 307.603C186.995 316.017 196.099 320.557 204.514 317.743L511.276 215.132C519.691 212.317 524.231 203.214 521.416 194.799C518.602 186.384 509.498 181.844 501.083 184.659Z"/>
<path d="M521.494 245.605L214.732 348.215C206.317 351.03 201.777 360.134 204.592 368.548C207.406 376.963 216.51 381.503 224.925 378.688L531.688 276.078C540.102 273.263 544.642 264.159 541.827 255.745C539.013 247.33 529.909 242.79 521.494 245.605Z"/>
<path d="M419.991 347.331L235.12 409.169C226.706 411.983 222.166 421.087 224.98 429.502C227.795 437.916 236.899 442.456 245.313 439.642L430.184 377.804C438.598 374.989 443.138 365.885 440.324 357.471C437.509 349.056 428.405 344.516 419.991 347.331Z"/>
<path d="M349.02 439.044L255.57 470.303C247.155 473.118 242.615 482.222 245.43 490.636C248.244 499.051 257.348 503.591 265.763 500.776L359.213 469.517C367.628 466.703 372.168 457.599 369.353 449.184C366.539 440.77 357.435 436.23 349.02 439.044Z"/>
</mask>
<path d="M420.161 449.131C428.576 446.316 433.116 437.213 430.301 428.798C427.486 420.383 418.383 415.843 409.968 418.658C401.553 421.472 397.013 430.576 399.828 438.991C402.643 447.406 411.746 451.945 420.161 449.131Z" stroke="#030303" stroke-width="67.374" mask="url(#path-1-inside-1)"/>
<path d="M520.962 41.3941L475.252 56.6838L459.962 10.9741C457.148 2.55945 448.044 -1.98057 439.629 0.834089L378.641 21.2342C358.543 7.39696 332.414 2.81446 307.544 11.1334C282.673 19.4523 264.56 38.8339 256.832 61.9788L10.9741 144.217C2.55945 147.032 -1.98057 156.136 0.834089 164.55L133.684 561.716C136.499 570.131 145.603 574.671 154.017 571.856L199.727 556.567L215.356 603.292C218.171 611.707 227.275 616.247 235.689 613.432L547.68 509.073C568.029 502.266 584.51 487.943 594.085 468.741C594.085 468.741 594.127 468.654 594.15 468.611L630.864 393.297C640.406 374.112 641.919 352.359 635.121 332.036L541.295 51.5341C538.48 43.1195 529.376 38.5795 520.962 41.3941ZM402.58 47.1096L434.586 36.4038L444.779 66.8769L412.773 77.5827C412.129 72.3225 410.954 67.0504 409.209 61.8334C407.464 56.6164 405.231 51.6983 402.58 47.1096ZM317.737 41.6065C342.941 33.1758 370.305 46.8222 378.736 72.0265C387.167 97.2308 373.52 124.595 348.316 133.026C323.112 141.457 295.747 127.81 287.317 102.606C278.886 77.4015 292.532 50.0372 317.737 41.6065ZM82.1665 205.11L189.534 526.094L159.061 536.287L36.3698 169.492L253.246 96.9481C253.889 102.208 255.099 107.582 256.844 112.799C258.589 118.016 260.822 122.934 263.473 127.523L92.3065 184.777C83.8919 187.592 79.3519 196.696 82.1665 205.11ZM602.073 379.029C602.05 379.072 602.008 379.159 602.008 379.159L565.299 454.463C561.158 462.738 554.869 469.486 547.125 474.145L516.576 382.817L606.89 352.608C607.83 361.619 606.213 370.725 602.073 379.029ZM597.803 321.764L491.147 357.44C482.732 360.255 478.192 369.359 481.007 377.773L517.022 485.445L240.733 577.862L117.736 210.154L287.411 153.398C290.446 155.488 293.619 157.364 296.904 159.018L287.155 194.91C284.829 203.473 289.886 212.3 298.449 214.625C307.016 216.953 315.84 211.89 318.164 203.332L327.906 167.466C337.986 168.124 348.351 166.897 358.509 163.499C383.379 155.18 401.493 135.798 409.221 112.654L515.918 76.9638L597.803 321.764Z" stroke="#030303" stroke-width="67.374" mask="url(#path-1-inside-1)"/>
<path d="M501.083 184.659L194.321 287.27C185.906 290.084 181.366 299.188 184.181 307.603C186.995 316.017 196.099 320.557 204.514 317.743L511.276 215.132C519.691 212.317 524.231 203.214 521.416 194.799C518.602 186.384 509.498 181.844 501.083 184.659Z" stroke="#030303" stroke-width="67.374" mask="url(#path-1-inside-1)"/>
<path d="M521.494 245.605L214.732 348.215C206.317 351.03 201.777 360.134 204.592 368.548C207.406 376.963 216.51 381.503 224.925 378.688L531.688 276.078C540.102 273.263 544.642 264.159 541.827 255.745C539.013 247.33 529.909 242.79 521.494 245.605Z" stroke="#030303" stroke-width="67.374" mask="url(#path-1-inside-1)"/>
<path d="M419.991 347.331L235.12 409.169C226.706 411.983 222.166 421.087 224.98 429.502C227.795 437.916 236.899 442.456 245.313 439.642L430.184 377.804C438.598 374.989 443.138 365.885 440.324 357.471C437.509 349.056 428.405 344.516 419.991 347.331Z" stroke="#030303" stroke-width="67.374" mask="url(#path-1-inside-1)"/>
<path d="M349.02 439.044L255.57 470.303C247.155 473.118 242.615 482.222 245.43 490.636C248.244 499.051 257.348 503.591 265.763 500.776L359.213 469.517C367.628 466.703 372.168 457.599 369.353 449.184C366.539 440.77 357.435 436.23 349.02 439.044Z" stroke="#030303" stroke-width="67.374" mask="url(#path-1-inside-1)"/>
</g>
</svg>
