<svg width="491" height="639" viewBox="0 0 491 639" fill="none" xmlns="http://www.w3.org/2000/svg">
<path id="Vector" opacity="0.1" d="M11.887 405.126C32.8913 469.276 78.2293 519.001 135.334 545.503L88.2663 638.398L263.221 581.114L205.936 406.16L162.791 491.314C121.168 472.657 86.4358 435.602 70.2052 386.031C45.3819 310.217 73.9481 229.837 132.421 181.635L113.326 123.317C22.7783 182.021 -23.4384 297.237 11.887 405.126ZM292.897 474.542L351.215 455.447L332.12 397.129L273.802 416.224L292.897 474.542ZM460.371 0L285.417 57.2844L342.701 232.239L385.847 147.085C427.47 165.741 462.202 202.797 478.432 252.367C503.256 328.181 474.689 408.562 416.216 456.764L436.266 517.998C526.814 459.293 573.031 344.077 537.705 236.187C516.701 172.037 471.363 122.312 414.258 95.8103L460.371 0ZM254.707 357.906L313.025 338.811L255.741 163.856L197.423 182.951L254.707 357.906Z" transform="translate(-58.793 0.0722656)" fill="black"/>
</svg>
