<svg width="519" height="661" viewBox="0 0 519 661" fill="none" xmlns="http://www.w3.org/2000/svg">
<path opacity="0.1" d="M168.169 597.284L168.17 597.286C172.538 614.835 184.355 629.361 200.641 637.205L200.642 637.205C216.909 645.041 235.61 645.225 252.027 637.712L359.354 588.596L374.67 581.587L381.679 596.903C395.547 627.208 431.52 640.593 461.824 626.725C492.128 612.857 505.514 576.884 491.646 546.58L484.637 531.264L499.953 524.255L607.732 474.932C624.149 467.42 636.234 453.148 640.939 435.714C645.648 418.262 642.38 399.824 631.955 385.047L168.169 597.284ZM168.169 597.284C166.978 592.502 169.889 587.659 174.675 586.468L168.169 597.284ZM623.704 431.057L623.703 431.06C621.815 438.059 616.157 451.443 600.303 458.698L244.597 621.478C228.743 628.733 214.915 624.264 208.388 621.121L208.383 621.119C201.843 617.967 189.714 609.927 185.495 592.974C184.305 588.192 179.461 585.277 174.675 586.468L623.704 431.057ZM623.704 431.057C625.594 424.048 627.438 409.613 617.366 395.338M623.704 431.057L617.366 395.338M543.307 325.05L543.308 325.051L543.657 325.301C566.922 341.991 592.851 360.591 617.366 395.338M543.307 325.05L617.366 395.338M543.307 325.05C515.243 304.922 489.436 286.199 471.456 246.908L455.37 211.758C417.724 129.494 319.934 92.3027 237.156 128.74L237.044 128.79M543.307 325.05L237.044 128.79M237.044 128.79L236.933 128.841M237.044 128.79L236.933 128.841M236.933 128.841L232.503 130.868L232.392 130.919M236.933 128.841L232.392 130.919M232.392 130.919L232.281 130.971M232.392 130.919L232.281 130.971M232.281 130.971C150.797 169.701 115.288 267.95 152.914 350.169L168.999 385.319C184.28 418.71 183.996 446.517 182.304 471.763C182.078 475.128 180.022 477.958 177.094 479.298C175.808 479.886 174.361 480.178 172.804 480.073L172.799 480.073M232.281 130.971L172.799 480.073M172.799 480.073C167.882 479.744 164.162 475.489 164.492 470.572L164.492 470.569M172.799 480.073L164.492 470.569M164.492 470.569C166.335 443.044 165.276 420.088 152.765 392.748L136.68 357.599C116.455 313.404 114.465 263.887 131.104 218.024L131.105 218.024M164.492 470.569L131.105 218.024M131.105 218.024C145.369 178.702 171.817 146.214 206.595 124.668L219.221 116.847M131.105 218.024L219.221 116.847M219.221 116.847L213.041 103.341M219.221 116.847L213.041 103.341M213.041 103.341L197.368 69.0936C195.316 64.6103 197.287 59.3135 201.771 57.2618C206.254 55.2101 211.551 57.181 213.602 61.6644L229.307 95.981L235.465 109.438M213.041 103.341L235.465 109.438M235.465 109.438L249.603 105.062M235.465 109.438L249.603 105.062M249.603 105.062C336.538 78.1558 432.918 119.79 471.605 204.329M249.603 105.062L471.605 204.329M471.605 204.329L487.69 239.479M471.605 204.329L487.69 239.479M487.69 239.479C503.844 274.777 527.413 291.681 552.831 309.911M487.69 239.479L552.831 309.911M552.831 309.911L553.713 310.544M552.831 309.911L553.713 310.544M553.713 310.544C578.951 328.65 605.8 347.976 631.955 385.046L553.713 310.544ZM29.7686 195.742C31.2304 191.033 36.234 188.401 40.9398 189.862M29.7686 195.742L40.9398 189.862M29.7686 195.742L13.6824 190.749L40.9398 189.862M29.7686 195.742C8.79509 263.313 13.4637 335.96 42.9216 400.331C44.9732 404.815 50.27 406.785 54.7534 404.734C59.2368 402.682 61.2076 397.385 59.156 392.902C31.5356 332.546 27.1521 264.397 46.8196 201.034C48.2807 196.327 45.6484 191.324 40.9398 189.862M475.41 554.01L468.401 538.694L453.085 545.703L406.219 567.15L390.903 574.159L397.912 589.475C407.696 610.854 433.014 620.275 454.394 610.491C475.773 600.707 485.194 575.389 475.41 554.01ZM407.304 22.207L407.304 22.2059C409.276 17.6878 414.537 15.6231 419.056 17.5952L419.056 17.5954C483.901 45.8932 535.827 96.9148 565.285 161.286C567.336 165.769 565.365 171.066 560.882 173.118C556.399 175.17 551.102 173.199 549.05 168.715L533.734 175.724L549.05 168.715C521.43 108.36 472.722 60.4928 411.915 33.9585C407.396 31.9864 405.332 26.7246 407.304 22.207Z" transform="translate(-141.664 0.876953)" stroke="black" stroke-width="33.687"/>
</svg>
