<svg width="519" height="661" viewBox="0 0 519 661" fill="none" xmlns="http://www.w3.org/2000/svg">
<g id="Vector" opacity="0.1" transform="translate(-141.664 0.876953)">
<mask id="path-1-inside-1" fill="white">
<path d="M151.825 601.354C148.386 587.543 156.795 573.56 170.608 570.123C184.418 566.686 198.402 575.095 201.84 588.905C204.389 599.152 211.616 603.979 215.696 605.945C219.765 607.905 228.022 610.54 237.588 606.162L593.294 443.382C602.861 439.004 606.265 431.034 607.441 426.673C608.62 422.3 609.691 413.676 603.603 405.048C580.725 372.622 556.712 355.396 533.49 338.737C505.288 318.509 476.125 297.589 456.14 253.917L440.054 218.767C406.239 144.874 318.293 111.428 243.942 144.156L239.512 146.184C166.392 180.938 134.413 269.264 168.23 343.161L184.315 378.31C201.325 415.479 200.871 446.619 199.11 472.89C198.454 482.667 192.428 490.803 184.103 494.614C180.336 496.337 176.097 497.176 171.675 496.879C157.473 495.928 146.733 483.644 147.686 469.444C149.436 443.304 148.323 423.52 137.449 399.757L121.364 364.608C99.2941 316.381 97.1293 262.284 115.271 212.28C130.816 169.426 159.703 133.905 197.725 110.35L182.052 76.1026C176.13 63.1604 181.82 47.8685 194.762 41.9459C207.704 36.0232 222.996 41.7133 228.918 54.6554L244.623 88.9721C339.524 59.5997 444.66 104.971 486.921 197.32L503.006 232.47C517.294 263.691 537.699 278.327 563.532 296.858C588.982 315.116 617.829 335.809 645.718 375.336C659.031 394.206 663.216 417.812 657.2 440.103C651.19 462.374 635.714 480.651 614.741 490.248L506.962 539.571C524.701 578.334 507.596 624.302 468.833 642.041C430.07 659.78 384.102 642.675 366.363 603.912L259.036 653.028C238.063 662.626 214.114 662.391 193.332 652.38C172.531 642.361 157.403 623.764 151.825 601.354ZM447.385 595.175C460.306 589.262 466.007 573.94 460.094 561.019L413.228 582.466C419.141 595.387 434.464 601.088 447.385 595.175Z"/>
<path d="M391.866 15.4699C397.559 2.42435 412.748 -3.53493 425.793 2.15777C494.44 32.1146 549.419 86.1382 580.601 154.277C586.523 167.219 580.833 182.511 567.891 188.434C554.949 194.356 539.657 188.666 533.734 175.724C507.838 119.136 462.183 74.2713 405.178 49.3961C392.134 43.7034 386.174 28.5142 391.866 15.4699Z"/>
<path d="M13.6824 190.749C17.9018 177.157 32.342 169.557 45.9336 173.776C59.5252 177.996 67.1248 192.435 62.906 206.027C44.4681 265.428 48.5755 329.304 74.4719 385.893C80.3945 398.835 74.7045 414.127 61.7623 420.05C48.8202 425.972 33.5283 420.282 27.6056 407.34C-3.5764 339.201 -8.52085 262.281 13.6824 190.749Z"/>
</mask>
<path d="M151.825 601.354C148.386 587.543 156.795 573.56 170.608 570.123C184.418 566.686 198.402 575.095 201.84 588.905C204.389 599.152 211.616 603.979 215.696 605.945C219.765 607.905 228.022 610.54 237.588 606.162L593.294 443.382C602.861 439.004 606.265 431.034 607.441 426.673C608.62 422.3 609.691 413.676 603.603 405.048C580.725 372.622 556.712 355.396 533.49 338.737C505.288 318.509 476.125 297.589 456.14 253.917L440.054 218.767C406.239 144.874 318.293 111.428 243.942 144.156L239.512 146.184C166.392 180.938 134.413 269.264 168.23 343.161L184.315 378.31C201.325 415.479 200.871 446.619 199.11 472.89C198.454 482.667 192.428 490.803 184.103 494.614C180.336 496.337 176.097 497.176 171.675 496.879C157.473 495.928 146.733 483.644 147.686 469.444C149.436 443.304 148.323 423.52 137.449 399.757L121.364 364.608C99.2941 316.381 97.1293 262.284 115.271 212.28C130.816 169.426 159.703 133.905 197.725 110.35L182.052 76.1026C176.13 63.1604 181.82 47.8685 194.762 41.9459C207.704 36.0232 222.996 41.7133 228.918 54.6554L244.623 88.9721C339.524 59.5997 444.66 104.971 486.921 197.32L503.006 232.47C517.294 263.691 537.699 278.327 563.532 296.858C588.982 315.116 617.829 335.809 645.718 375.336C659.031 394.206 663.216 417.812 657.2 440.103C651.19 462.374 635.714 480.651 614.741 490.248L506.962 539.571C524.701 578.334 507.596 624.302 468.833 642.041C430.07 659.78 384.102 642.675 366.363 603.912L259.036 653.028C238.063 662.626 214.114 662.391 193.332 652.38C172.531 642.361 157.403 623.764 151.825 601.354ZM447.385 595.175C460.306 589.262 466.007 573.94 460.094 561.019L413.228 582.466C419.141 595.387 434.464 601.088 447.385 595.175Z" stroke="black" stroke-width="67.374" mask="url(#path-1-inside-1)"/>
<path d="M391.866 15.4699C397.559 2.42435 412.748 -3.53493 425.793 2.15777C494.44 32.1146 549.419 86.1382 580.601 154.277C586.523 167.219 580.833 182.511 567.891 188.434C554.949 194.356 539.657 188.666 533.734 175.724C507.838 119.136 462.183 74.2713 405.178 49.3961C392.134 43.7034 386.174 28.5142 391.866 15.4699Z" stroke="black" stroke-width="67.374" mask="url(#path-1-inside-1)"/>
<path d="M13.6824 190.749C17.9018 177.157 32.342 169.557 45.9336 173.776C59.5252 177.996 67.1248 192.435 62.906 206.027C44.4681 265.428 48.5755 329.304 74.4719 385.893C80.3945 398.835 74.7045 414.127 61.7623 420.05C48.8202 425.972 33.5283 420.282 27.6056 407.34C-3.5764 339.201 -8.52085 262.281 13.6824 190.749Z" stroke="black" stroke-width="67.374" mask="url(#path-1-inside-1)"/>
</g>
</svg>
